<?xml version="1.0" encoding="UTF-8" standalone="no"?>
<!-- Created with Inkscape (http://www.inkscape.org/) -->

<svg
   version="1.1"
   id="svg2"
   xml:space="preserve"
   width="3128"
   height="1352"
   viewBox="0 0 3128 1352"
   xmlns="http://www.w3.org/2000/svg"
   xmlns:svg="http://www.w3.org/2000/svg"><defs
     id="defs6"><clipPath
       clipPathUnits="userSpaceOnUse"
       id="clipPath16"><path
         d="M 0,1014 H 2346 V 0 H 0 Z"
         id="path14" /></clipPath><clipPath
       clipPathUnits="userSpaceOnUse"
       id="clipPath24"><path
         d="M 206,916 H 2338 V 822 H 206 Z"
         id="path22" /></clipPath><clipPath
       clipPathUnits="userSpaceOnUse"
       id="clipPath40"><path
         d="M 206,808 H 2338 V 744 H 206 Z"
         id="path38" /></clipPath><clipPath
       clipPathUnits="userSpaceOnUse"
       id="clipPath56"><path
         d="M 206,736 H 2338 V 562 H 206 Z"
         id="path54" /></clipPath><clipPath
       clipPathUnits="userSpaceOnUse"
       id="clipPath72"><path
         d="M 206,528 H 2338 V 462 H 206 Z"
         id="path70" /></clipPath><clipPath
       clipPathUnits="userSpaceOnUse"
       id="clipPath88"><path
         d="M 206,440 H 2338 V 344 H 206 Z"
         id="path86" /></clipPath><clipPath
       clipPathUnits="userSpaceOnUse"
       id="clipPath104"><path
         d="M 206,312 H 2338 V 270 H 206 Z"
         id="path102" /></clipPath><clipPath
       clipPathUnits="userSpaceOnUse"
       id="clipPath120"><path
         d="M 206,176 H 2338 V 102 H 206 Z"
         id="path118" /></clipPath><clipPath
       clipPathUnits="userSpaceOnUse"
       id="clipPath136"><path
         d="M 206,92 H 2336 V 62 H 206 Z"
         id="path134" /></clipPath><clipPath
       clipPathUnits="userSpaceOnUse"
       id="clipPath152"><path
         d="M 206,56 H 2338 V 26 H 206 Z"
         id="path150" /></clipPath><clipPath
       clipPathUnits="userSpaceOnUse"
       id="clipPath294"><path
         d="M 0,1014 H 2346 V 0 H 0 Z"
         id="path292" /></clipPath></defs><g
     id="g8"
     transform="matrix(1.3333333,0,0,-1.3333333,0,1352)"><g
       id="g10"><g
         id="g12"
         clip-path="url(#clipPath16)"><g
           id="g18"><g
             id="g20" /><g
             id="g32"><g
               clip-path="url(#clipPath24)"
               opacity="0.350006"
               id="g30"><g
                 transform="translate(2338,842.8887)"
                 id="g28"><path
                   d="m 0,0 c 0,-11.537 -5.393,-20.889 -12.045,-20.889 h -2107.91 c -6.652,0 -12.045,9.352 -12.045,20.889 v 52.223 c 0,11.536 5.393,20.888 12.045,20.888 H -12.045 C -5.393,73.111 0,63.759 0,52.223 Z"
                   style="fill:#ee2530;fill-opacity:1;fill-rule:nonzero;stroke:none"
                   id="path26" /></g></g></g></g><g
           id="g34"><g
             id="g36" /><g
             id="g48"><g
               clip-path="url(#clipPath40)"
               opacity="0.350006"
               id="g46"><g
                 transform="translate(2338,793.7778)"
                 id="g44"><path
                   d="m 0,0 c 0,7.855 -5.393,14.222 -12.045,14.222 h -2107.91 C -2126.607,14.222 -2132,7.855 -2132,0 v -35.556 c 0,-7.855 5.393,-14.222 12.045,-14.222 h 2107.91 c 6.652,0 12.045,6.367 12.045,14.222 z"
                   style="fill:#f57e1c;fill-opacity:1;fill-rule:nonzero;stroke:none"
                   id="path42" /></g></g></g></g><g
           id="g50"><g
             id="g52" /><g
             id="g64"><g
               clip-path="url(#clipPath56)"
               opacity="0.350006"
               id="g62"><g
                 transform="translate(2338,600.667)"
                 id="g60"><path
                   d="m 0,0 c 0,-21.356 -5.393,-38.667 -12.045,-38.667 h -2107.91 c -6.652,0 -12.045,17.311 -12.045,38.667 v 96.666 c 0,21.356 5.393,38.667 12.045,38.667 H -12.045 C -5.393,135.333 0,118.022 0,96.666 Z"
                   style="fill:#e7eb15;fill-opacity:1;fill-rule:nonzero;stroke:none"
                   id="path58" /></g></g></g></g><g
           id="g66"><g
             id="g68" /><g
             id="g80"><g
               clip-path="url(#clipPath72)"
               opacity="0.350006"
               id="g78"><g
                 transform="translate(2338,513.333)"
                 id="g76"><path
                   d="m 0,0 c 0,8.101 -5.393,14.667 -12.045,14.667 h -2107.91 C -2126.607,14.667 -2132,8.101 -2132,0 v -36.666 c 0,-8.102 5.393,-14.667 12.045,-14.667 h 2107.91 c 6.652,0 12.045,6.565 12.045,14.667 z"
                   style="fill:#61c331;fill-opacity:1;fill-rule:nonzero;stroke:none"
                   id="path74" /></g></g></g></g><g
           id="g82"><g
             id="g84" /><g
             id="g96"><g
               clip-path="url(#clipPath88)"
               opacity="0.350006"
               id="g94"><g
                 transform="translate(2338,365.334)"
                 id="g92"><path
                   d="m 0,0 c 0,-11.782 -5.393,-21.334 -12.045,-21.334 h -2107.91 c -6.652,0 -12.045,9.552 -12.045,21.334 v 53.332 c 0,11.784 5.393,21.334 12.045,21.334 H -12.045 C -5.393,74.666 0,65.116 0,53.332 Z"
                   style="fill:#2a7b36;fill-opacity:1;fill-rule:nonzero;stroke:none"
                   id="path90" /></g></g></g></g><g
           id="g98"><g
             id="g100" /><g
             id="g112"><g
               clip-path="url(#clipPath104)"
               opacity="0.350006"
               id="g110"><g
                 transform="translate(2338,302.666)"
                 id="g108"><path
                   d="m 0,0 c 0,5.154 -5.393,9.334 -12.045,9.334 h -2107.91 C -2126.607,9.334 -2132,5.154 -2132,0 v -23.332 c 0,-5.156 5.393,-9.334 12.045,-9.334 h 2107.91 c 6.652,0 12.045,4.178 12.045,9.334 z"
                   style="fill:#5dcbf5;fill-opacity:1;fill-rule:nonzero;stroke:none"
                   id="path106" /></g></g></g></g><g
           id="g114"><g
             id="g116" /><g
             id="g128"><g
               clip-path="url(#clipPath120)"
               opacity="0.350006"
               id="g126"><g
                 transform="translate(2338,118.4443)"
                 id="g124"><path
                   d="m 0,0 c 0,-9.08 -5.393,-16.444 -12.045,-16.444 h -2107.91 c -6.652,0 -12.045,7.364 -12.045,16.444 v 41.111 c 0,9.084 5.393,16.445 12.045,16.445 H -12.045 C -5.393,57.556 0,50.195 0,41.111 Z"
                   style="fill:#4b62b7;fill-opacity:1;fill-rule:nonzero;stroke:none"
                   id="path122" /></g></g></g></g><g
           id="g130"><g
             id="g132" /><g
             id="g144"><g
               clip-path="url(#clipPath136)"
               opacity="0.350006"
               id="g142"><g
                 transform="translate(2336,85.333)"
                 id="g140"><path
                   d="M 0,0 C 0,3.681 -5.388,6.667 -12.034,6.667 H -2117.966 C -2124.612,6.667 -2130,3.681 -2130,0 v -16.666 c 0,-3.684 5.388,-6.667 12.034,-6.667 H -12.034 c 6.646,0 12.034,2.983 12.034,6.667 z"
                   style="fill:#231f20;fill-opacity:1;fill-rule:nonzero;stroke:none"
                   id="path138" /></g></g></g></g><g
           id="g146"><g
             id="g148" /><g
             id="g160"><g
               clip-path="url(#clipPath152)"
               opacity="0.350006"
               id="g158"><g
                 transform="translate(2338,49.333)"
                 id="g156"><path
                   d="m 0,0 c 0,3.681 -5.393,6.667 -12.045,6.667 h -2107.91 C -2126.607,6.667 -2132,3.681 -2132,0 v -16.666 c 0,-3.684 5.393,-6.667 12.045,-6.667 h 2107.91 c 6.652,0 12.045,2.983 12.045,6.667 z"
                   style="fill:#231f20;fill-opacity:1;fill-rule:nonzero;stroke:none"
                   id="path154" /></g></g></g></g></g></g><g
       id="g162"
       transform="translate(609.0225,612.8857)"><path
         d="M 0,0 H -32.107 V -196.816"
         style="fill:none;stroke:#141113;stroke-width:6;stroke-linecap:round;stroke-linejoin:round;stroke-miterlimit:10;stroke-dasharray:none;stroke-opacity:1"
         id="path164" /></g><g
       id="g166"
       transform="translate(654.8477,570.688)"><path
         d="M 0,0 H -45.825 V 39.417"
         style="fill:none;stroke:#141113;stroke-width:6;stroke-linecap:round;stroke-linejoin:round;stroke-miterlimit:10;stroke-dasharray:none;stroke-opacity:1"
         id="path168" /></g><g
       id="g170"
       transform="translate(722.3472,958.0674)"><path
         d="M 0,0 H -65.163 V -70.094"
         style="fill:none;stroke:#141113;stroke-width:6;stroke-linecap:round;stroke-linejoin:round;stroke-miterlimit:10;stroke-dasharray:none;stroke-opacity:1"
         id="path172" /></g><g
       id="g174"
       transform="translate(788.1113,286.3623)"><path
         d="M 0,0 H -95.111 V 63.803"
         style="fill:none;stroke:#141113;stroke-width:6;stroke-linecap:round;stroke-linejoin:round;stroke-miterlimit:10;stroke-dasharray:none;stroke-opacity:1"
         id="path176" /></g><g
       id="g178"
       transform="translate(752.5273,404.668)"><path
         d="M 0,0 -59.527,-0.579 V -64.382"
         style="fill:none;stroke:#141113;stroke-width:6;stroke-linecap:round;stroke-linejoin:round;stroke-miterlimit:10;stroke-dasharray:none;stroke-opacity:1"
         id="path180" /></g><g
       id="g182"
       transform="translate(788.1113,286.3623)"><path
         d="M 0,0 H -95.111"
         style="fill:none;stroke:#141113;stroke-width:6;stroke-linecap:round;stroke-linejoin:round;stroke-miterlimit:10;stroke-dasharray:none;stroke-opacity:1"
         id="path184" /></g><g
       id="g186"
       transform="translate(788.1113,418.1553)"><path
         d="M 0,0 H -37.614 V -22.063"
         style="fill:none;stroke:#141113;stroke-width:6;stroke-linecap:round;stroke-linejoin:round;stroke-miterlimit:10;stroke-dasharray:none;stroke-opacity:1"
         id="path188" /></g><g
       id="g190"
       transform="translate(776.4971,373.334)"><path
         d="M 0,0 -26,0.674 V 22.759"
         style="fill:none;stroke:#141113;stroke-width:6;stroke-linecap:round;stroke-linejoin:round;stroke-miterlimit:10;stroke-dasharray:none;stroke-opacity:1"
         id="path192" /></g><g
       id="g194"
       transform="translate(752.4976,779.8945)"><path
         d="M 0,0 -111.365,-0.08 V 147.398"
         style="fill:none;stroke:#141113;stroke-width:6;stroke-linecap:round;stroke-linejoin:round;stroke-miterlimit:10;stroke-dasharray:none;stroke-opacity:1"
         id="path196" /></g><g
       id="g198"
       transform="translate(641.1323,833.8896)"><path
         d="M 0,0 H -32.11 V -233.512"
         style="fill:none;stroke:#141113;stroke-width:6;stroke-linecap:round;stroke-linejoin:round;stroke-miterlimit:10;stroke-dasharray:none;stroke-opacity:1"
         id="path200" /></g><g
       id="g202"
       transform="translate(655.0269,929.3926)"><path
         d="M 0,0 H -14.323"
         style="fill:none;stroke:#141113;stroke-width:5.841;stroke-linecap:round;stroke-linejoin:round;stroke-miterlimit:10;stroke-dasharray:none;stroke-opacity:1"
         id="path204" /></g><g
       id="g206"
       transform="translate(673.8623,885.1943)"><path
         d="M 0,0 H -16.678"
         style="fill:none;stroke:#141113;stroke-width:6;stroke-linecap:round;stroke-linejoin:round;stroke-miterlimit:10;stroke-dasharray:none;stroke-opacity:1"
         id="path208" /></g><g
       id="g210"
       transform="translate(691.4541,353.584)"><path
         d="M 0,0 H -114.539 V 67.121"
         style="fill:none;stroke:#141113;stroke-width:6;stroke-linecap:round;stroke-linejoin:round;stroke-miterlimit:10;stroke-dasharray:none;stroke-opacity:1"
         id="path212" /></g><g
       id="g214"
       transform="translate(745.5649,141.6064)"><path
         d="M 0,0 H -291.957 V 159.3"
         style="fill:none;stroke:#141113;stroke-width:6;stroke-linecap:round;stroke-linejoin:round;stroke-miterlimit:10;stroke-dasharray:none;stroke-opacity:1"
         id="path216" /></g><g
       id="g218"
       transform="translate(576.334,460.668)"><path
         d="M 0,0 -122.726,-0.465 V -159.762"
         style="fill:none;stroke:#141113;stroke-width:6;stroke-linecap:round;stroke-linejoin:round;stroke-miterlimit:10;stroke-dasharray:none;stroke-opacity:1"
         id="path220" /></g><g
       id="g222"
       transform="translate(491.5649,41.6064)"><path
         d="M 0,0 H -69.957 V 141.492"
         style="fill:none;stroke:#141113;stroke-width:6;stroke-linecap:round;stroke-linejoin:round;stroke-miterlimit:10;stroke-dasharray:none;stroke-opacity:1"
         id="path224" /></g><g
       id="g226"
       transform="translate(451.0146,325)"><path
         d="M 0,0 -29.407,-0.412 V -141.901"
         style="fill:none;stroke:#141113;stroke-width:6;stroke-linecap:round;stroke-linejoin:round;stroke-miterlimit:10;stroke-dasharray:none;stroke-opacity:1"
         id="path228" /></g><g
       id="g230"
       transform="translate(788.1113,792.2388)"><path
         d="M 0,0 H -32.111 V -14.49"
         style="fill:none;stroke:#141113;stroke-width:6;stroke-linecap:round;stroke-linejoin:round;stroke-miterlimit:10;stroke-dasharray:none;stroke-opacity:1"
         id="path232" /></g><g
       id="g234"
       transform="translate(788.1113,763.2778)"><path
         d="M 0,0 H -32.111 V 14.471"
         style="fill:none;stroke:#141113;stroke-width:6;stroke-linecap:round;stroke-linejoin:round;stroke-miterlimit:10;stroke-dasharray:none;stroke-opacity:1"
         id="path236" /></g><text
       transform="matrix(1,0,0,-1,799,783.4941)"
       style="font-style:italic;font-variant:normal;font-weight:normal;font-stretch:normal;font-size:24px;font-family:Arial;-inkscape-font-specification:Arial-ItalicMT;writing-mode:lr-tb;fill:#231f20;fill-opacity:1;fill-rule:nonzero;stroke:none"
       id="text244"><tspan
         x="0 17.327999 30.672001 44.015999 56.015999 69.360001 81.360001 94.704002 108.048 116.04 129.384 136.056 149.39999 166.728 178.728 190.728 204.07201 212.064 224.064 237.408 249.408"
         y="0"
         id="tspan238">Capsaspora owczarzaki</tspan><tspan
         x="0 19.992001 25.32 38.664001 43.992001 55.992001 62.664001 76.008003 84 89.328003 102.672 109.344 121.344 126.672 140.01601 148.008 161.35201 174.696"
         y="30"
         id="tspan240">Ministeria vibrans</tspan><tspan
         x="0 16.007999 29.351999 34.68 48.023998 53.352001 66.695999 80.040001 93.384003 106.728 118.728 132.07201 138.744 146.73599 160.08 172.08 185.424 192.09599 198.76801"
         y="-108.504"
         id="tspan242">Salpingoeca rosetta</tspan></text><g
       id="g246"
       transform="translate(726.4717,958.9902)"><path
         d="M 0,0 61.64,29.007"
         style="fill:none;stroke:#141113;stroke-width:5.559;stroke-linecap:round;stroke-linejoin:round;stroke-miterlimit:10;stroke-dasharray:none;stroke-opacity:1"
         id="path248" /></g><g
       id="g250"
       transform="translate(726.4717,958.084)"><path
         d="M 0,0 61.64,-29.007"
         style="fill:none;stroke:#141113;stroke-width:5.559;stroke-linecap:round;stroke-linejoin:round;stroke-miterlimit:10;stroke-dasharray:none;stroke-opacity:1"
         id="path252" /></g><g
       id="g254"
       transform="translate(788.1113,987.9971)"><path
         d="M 0,0 V -58.92"
         style="fill:none;stroke:#141113;stroke-width:5.559;stroke-linecap:round;stroke-linejoin:round;stroke-miterlimit:10;stroke-dasharray:none;stroke-opacity:1"
         id="path256" /></g><g
       id="g258"
       transform="translate(714.9512,627.3486)"><path
         d="M 0,0 H -58.604 V -55.8"
         style="fill:none;stroke:#141113;stroke-width:6;stroke-linecap:round;stroke-linejoin:round;stroke-miterlimit:10;stroke-dasharray:none;stroke-opacity:1"
         id="path260" /></g><g
       id="g262"
       transform="translate(759.2813,589.6294)"><path
         d="M 0,0 H -48.281 V 43.639"
         style="fill:none;stroke:#141113;stroke-width:6;stroke-linecap:round;stroke-linejoin:round;stroke-miterlimit:10;stroke-dasharray:none;stroke-opacity:1"
         id="path264" /></g><g
       id="g266"
       transform="translate(777.9541,493.7061)"><path
         d="M 0,0 H -121.607 V 81.144"
         style="fill:none;stroke:#141113;stroke-width:6;stroke-linecap:round;stroke-linejoin:round;stroke-miterlimit:10;stroke-dasharray:none;stroke-opacity:1"
         id="path268" /></g><g
       id="g270"
       transform="translate(736.2813,673.7349)"><path
         d="M 0,0 H -25.281 V -40.467"
         style="fill:none;stroke:#141113;stroke-width:6;stroke-linecap:round;stroke-linejoin:round;stroke-miterlimit:10;stroke-dasharray:none;stroke-opacity:1"
         id="path272" /></g><text
       transform="matrix(1,0,0,-1,799,709.9854)"
       style="font-style:italic;font-variant:normal;font-weight:normal;font-stretch:normal;font-size:24px;font-family:Arial;-inkscape-font-specification:Arial-ItalicMT;writing-mode:lr-tb;fill:#231f20;fill-opacity:1;fill-rule:nonzero;stroke:none"
       id="text286"><tspan
         x="0 16.007999 29.351999 42.695999 56.040001 69.384003 77.375999 90.720001 97.391998 110.736 118.728 138.72 152.064 158.73599 172.08 180.07201 192.07201 198.744 204.07201 216.07201"
         y="0"
         id="tspan274">Sphaeroforma arctica</tspan><tspan
         x="0 17.327999 25.32 38.664001 52.007999 57.335999 62.664001 82.655998 96 108 114.672 121.344 129.336 142.67999 156.024 164.01601 177.36 190.70399 197.37601 202.70399 214.70399 226.70399 232.032 252.024"
         y="27.983999"
         id="tspan276">Creolimax fragrantissima</tspan><tspan
         x="0.50400001 16.511999 29.856001 43.200001 56.543999 63.216 76.559998 84.552002 104.544 117.888 124.56 141.888 155.23199 160.56 172.56 177.888 191.23199 199.224"
         y="113.976"
         id="tspan278">Abeoforma whisleri</tspan><tspan
         x="0 16.007999 21.336 29.327999 42.672001 62.664001 69.335999 82.68 96.024002 116.016 136.008 149.35201 156.024"
         y="142.944"
         id="tspan280">Pirum gemmata</tspan><tspan
         x="0.50400001 16.511999 36.504002 49.848 63.192001 76.536003 81.863998 95.208 100.536 113.88 133.87199 140.54401 153.888 167.23199 175.224 188.56799 200.56799 205.896 212.56799 217.896 229.896 243.24001"
         y="79.944"
         id="tspan282">Amoebidium parasiticum</tspan><tspan
         x="0 17.327999 30.672001 38.664001 52.007999 57.335999 62.664001 76.008003 88.008003 101.352 113.352 120.024 128.01601 133.34399 146.688 166.67999 173.35201 178.67999 184.008 204 217.34399 229.34399 234.672 246.672 260.01599 273.35999 281.35199 294.69601 314.68799 321.35999 328.03201 341.37601 354.72 360.048 373.392 380.064 392.064 398.73599 406.728 420.07199 425.39999"
         y="212.448"
         id="tspan284">Corallochytrium limacisporum India strain</tspan></text><g
       id="g288"><g
         id="g290"
         clip-path="url(#clipPath294)"><text
           transform="matrix(1,0,0,-1,799,7.7773)"
           style="font-variant:normal;font-weight:normal;font-stretch:normal;font-size:24px;font-family:Arial;-inkscape-font-specification:ArialMT;writing-mode:lr-tb;fill:#231f20;fill-opacity:1;fill-rule:nonzero;stroke:none"
           id="text298"><tspan
             x="0 18.672001 25.344 38.688 52.032001 60.023998 66.695999 86.688004 100.032 105.36 118.704 126.696 133.368 146.71201 160.056 172.056 185.39999 193.392 205.392 218.73599 225.408 238.752 245.424 258.76801 266.76001 280.104 293.448 306.79199"
             y="0"
             id="tspan296">Other major eukaryote groups</tspan></text></g></g><text
       transform="matrix(1,0,0,-1,799,411.9912)"
       style="font-style:italic;font-variant:normal;font-weight:normal;font-stretch:normal;font-size:24px;font-family:Arial;-inkscape-font-specification:Arial-ItalicMT;writing-mode:lr-tb;fill:#231f20;fill-opacity:1;fill-rule:nonzero;stroke:none"
       id="text304"><tspan
         x="0 16.007999 29.351999 37.344002 49.344002 62.688 68.015999 81.360001 89.351997 94.68 108.024 114.696 128.03999 134.71201 140.03999 153.384 166.728 173.39999 178.728"
         y="0"
         id="tspan300">Parvularia atlantis</tspan><tspan
         x="0 17.327999 30.672001 42.672001 48 61.344002 74.688004 82.68 88.008003 101.352 108.024 114.696 128.03999 141.384 149.37601 169.368 182.71201 196.056 209.39999 214.728 220.056"
         y="27.48"
         id="tspan302">Nuclearia thermophila</tspan></text><text
       transform="matrix(1,0,0,-1,1039.12,384.5112)"
       style="font-variant:normal;font-weight:normal;font-stretch:normal;font-size:24px;font-family:Arial;-inkscape-font-specification:ArialMT;writing-mode:lr-tb;fill:#231f20;fill-opacity:1;fill-rule:nonzero;stroke:none"
       id="text308"><tspan
         x="0 16.007999"
         y="0"
         id="tspan306">B1</tspan></text><text
       transform="matrix(1,0,0,-1,799,352.0152)"
       style="font-style:italic;font-variant:normal;font-weight:normal;font-stretch:normal;font-size:24px;font-family:Arial;-inkscape-font-specification:Arial-ItalicMT;writing-mode:lr-tb;fill:#231f20;fill-opacity:1;fill-rule:nonzero;stroke:none"
       id="text312"><tspan
         x="0 17.327999 30.672001 42.672001 48 61.344002 74.688004 82.68 88.008003 101.352 108.024 114.696 128.03999 141.384 149.37601 169.368 182.71201 196.056 209.39999 214.728 220.056"
         y="0"
         id="tspan310">Nuclearia thermophila</tspan></text><text
       transform="matrix(1,0,0,-1,1039.12,352.0152)"
       style="font-variant:normal;font-weight:normal;font-stretch:normal;font-size:24px;font-family:Arial;-inkscape-font-specification:ArialMT;writing-mode:lr-tb;fill:#231f20;fill-opacity:1;fill-rule:nonzero;stroke:none"
       id="text316"><tspan
         x="0 17.327999"
         y="0"
         id="tspan314">D6</tspan></text><g
       id="g318"
       transform="translate(788.1113,391.8223)"><path
         d="M 0,0 H -10.947 V -16.398"
         style="fill:none;stroke:#141113;stroke-width:6;stroke-linecap:round;stroke-linejoin:round;stroke-miterlimit:10;stroke-dasharray:none;stroke-opacity:1"
         id="path320" /></g><g
       id="g322"
       transform="translate(788.1113,359.0078)"><path
         d="M 0,0 H -10.947 V 16.416"
         style="fill:none;stroke:#141113;stroke-width:6;stroke-linecap:round;stroke-linejoin:round;stroke-miterlimit:10;stroke-dasharray:none;stroke-opacity:1"
         id="path324" /></g><g
       id="g326"
       transform="translate(722.0952,883.9121)"><path
         d="M 0,0 H -62.441"
         style="fill:none;stroke:#141113;stroke-width:6;stroke-linecap:round;stroke-linejoin:round;stroke-miterlimit:10;stroke-dasharray:none;stroke-opacity:1"
         id="path328" /></g><text
       transform="matrix(1,0,0,-1,799.0366,946.7168)"
       style="font-variant:normal;font-weight:normal;font-stretch:normal;font-size:24px;font-family:Arial;-inkscape-font-specification:ArialMT;writing-mode:lr-tb;fill:#231f20;fill-opacity:1;fill-rule:nonzero;stroke:none"
       id="text332"><tspan
         x="0 16.007999 29.351999 34.68 54.672001 68.015999 73.344002 85.344002 92.015999 100.008 120 133.34399 140.01601 153.36 165.36 178.70399 192.048"
         y="0"
         id="tspan330">Animals (Metazoa)</tspan></text><text
       transform="matrix(1,0,0,-1,798.9886,860.4848)"
       style="font-style:italic;font-variant:normal;font-weight:normal;font-stretch:normal;font-size:24px;font-family:Arial;-inkscape-font-specification:Arial-ItalicMT;writing-mode:lr-tb;fill:#231a1d;fill-opacity:1;fill-rule:nonzero;stroke:none"
       id="text336"><tspan
         x="0 17.327999 22.656 36 49.344002 62.688 76.031998 89.375999 102.72 116.064 128.064 141.408 148.08 161.424 169.416 182.75999 196.104 209.448 214.776"
         y="0"
         id="tspan334">Diaphanoeca grandis</tspan></text><g
       id="g338"
       transform="translate(788.1113,870.3848)"><path
         d="M 0,0 H -32.111 V -14.49"
         style="fill:none;stroke:#141113;stroke-width:6;stroke-linecap:round;stroke-linejoin:round;stroke-miterlimit:10;stroke-dasharray:none;stroke-opacity:1"
         id="path340" /></g><g
       id="g342"
       transform="translate(788.1113,841.4238)"><path
         d="M 0,0 H -32.111 V 14.471"
         style="fill:none;stroke:#141113;stroke-width:6;stroke-linecap:round;stroke-linejoin:round;stroke-miterlimit:10;stroke-dasharray:none;stroke-opacity:1"
         id="path344" /></g><text
       transform="matrix(1,0,0,-1,799.4951,112.1836)"
       style="font-style:italic;font-variant:normal;font-weight:normal;font-stretch:normal;font-size:24px;font-family:Arial;-inkscape-font-specification:Arial-ItalicMT;writing-mode:lr-tb;fill:#231f20;fill-opacity:1;fill-rule:nonzero;stroke:none"
       id="text360"><tspan
         x="0 16.007999 28.007999 41.352001 54.695999 61.368 74.711998 88.056 108.048 121.392 134.73599 148.08 161.424 168.09599 180.09599 193.44 205.44 212.112 225.45599 230.784 236.112 249.45599 262.79999 268.12799"
         y="0"
         id="tspan346">Acanthamoeba castellanii</tspan><tspan
         x="-0.50400001 16.823999 22.152 34.152 40.824001 52.824001 66.167999 78.167999 84.839996 98.183998 103.512 108.84 122.184 142.17599 148.84801 162.192 167.52 179.52 191.52 204.864 210.192 223.536 236.88 250.224"
         y="-33.504002"
         id="tspan348">Dictyostelium discoideum</tspan><tspan
         x="-0.50400001 16.823999 30.167999 43.512001 56.855999 62.183998 75.528 83.519997 88.848 102.192 108.864 122.208 130.2 143.54401 156.888 170.23199 178.224"
         y="75.311996"
         id="tspan350">Naegleria gruberi</tspan><tspan
         x="-0.50400001 16.823999 30.167999 35.495998 48.84 68.832001 80.832001 94.176003 107.52 127.512 140.856 154.2 167.54401 179.54401 186.216 194.20799 207.552 212.88 226.224 239.56799 252.912 260.90399 274.24799 280.92001 286.24799 291.57599 298.24799 306.23999 319.58401 327.57599 340.92001 354.26401 367.608 374.28 387.62399 392.952 406.29599 419.64001"
         y="46.608002"
         id="tspan352">Chlamydomonas reinhardtii (green alga)</tspan><tspan
         x="-0.50400001 15.504 28.848 34.175999 46.175999 59.52 64.848 70.176003 83.519997 103.512 115.512 127.512 140.856 152.856 159.528 172.87199 186.216 199.56 211.56 218.23199 231.576 238.248 251.592"
         y="-167.832"
         id="tspan354">Spizellomyces punctatus</tspan><tspan
         x="-0.50400001 15.504 22.176001 35.52 48.863998 62.208 75.552002 88.896004 102.24 115.584 127.584 140.92799 147.60001 160.944 166.272 179.616 184.944 198.28799 210.28799 223.632 235.632 242.304 255.64799 262.32001"
         y="-715.79999"
         id="tspan356">Stephanoeca diplocostata</tspan><tspan
         x="-0.50400001 16.823999 30.167999 38.16 51.504002 56.832001 62.16 75.503998 87.503998 100.848 112.848 119.52 127.512 132.84 146.18401 166.17599 172.84801 178.17599 183.504 203.496 216.84 228.84 234.168 246.168 259.51199 272.85599 280.84799 294.19199 314.18399 320.85599 338.18399 351.52802 368.85599 382.20001 387.52802 392.85599 399.52802 411.52802 418.20001 426.19199 439.53601 444.86401"
         y="-355.896"
         id="tspan358">Corallochytrium limacisporum Hawaii strain</tspan></text><g
       id="g362"
       transform="translate(788.1113,507.873)"><path
         d="M 0,0 H -8.111 V -14.49"
         style="fill:none;stroke:#141113;stroke-width:6;stroke-linecap:round;stroke-linejoin:round;stroke-miterlimit:10;stroke-dasharray:none;stroke-opacity:1"
         id="path364" /></g><g
       id="g366"
       transform="translate(788.1113,478.9121)"><path
         d="M 0,0 H -8.111 V 14.471"
         style="fill:none;stroke:#141113;stroke-width:6;stroke-linecap:round;stroke-linejoin:round;stroke-miterlimit:10;stroke-dasharray:none;stroke-opacity:1"
         id="path368" /></g><g
       id="g370"
       transform="translate(788.1113,899.894)"><path
         d="M 0,0 H -61.61 V -22.365"
         style="fill:none;stroke:#141113;stroke-width:6;stroke-linecap:round;stroke-linejoin:round;stroke-miterlimit:10;stroke-dasharray:none;stroke-opacity:1"
         id="path372" /></g><g
       id="g374"
       transform="translate(751.7783,858.627)"><path
         d="M 0,0 H -25.277 V 22.365"
         style="fill:none;stroke:#141113;stroke-width:6;stroke-linecap:round;stroke-linejoin:round;stroke-miterlimit:10;stroke-dasharray:none;stroke-opacity:1"
         id="path376" /></g><g
       id="g378"
       transform="translate(788.1113,899.894)"><path
         d="M 0,0 H -61.61"
         style="fill:none;stroke:#141113;stroke-width:6;stroke-linecap:round;stroke-linejoin:round;stroke-miterlimit:10;stroke-dasharray:none;stroke-opacity:1"
         id="path380" /></g><g
       id="g382"
       transform="translate(788.1113,155.249)"><path
         d="M 0,0 H -38.716 V -16.398"
         style="fill:none;stroke:#141113;stroke-width:6;stroke-linecap:round;stroke-linejoin:round;stroke-miterlimit:10;stroke-dasharray:none;stroke-opacity:1"
         id="path384" /></g><g
       id="g386"
       transform="translate(788.1113,122.4346)"><path
         d="M 0,0 H -38.716 V 16.416"
         style="fill:none;stroke:#141113;stroke-width:6;stroke-linecap:round;stroke-linejoin:round;stroke-miterlimit:10;stroke-dasharray:none;stroke-opacity:1"
         id="path388" /></g><g
       id="g390"
       transform="translate(788.1113,71.9199)"><path
         d="M 0,0 H -302.259 V -52.215"
         style="fill:none;stroke:#141113;stroke-width:6;stroke-linecap:round;stroke-linejoin:round;stroke-miterlimit:10;stroke-dasharray:none;stroke-opacity:1"
         id="path392" /></g><g
       id="g394"
       transform="translate(788.1113,43.9199)"><path
         d="M 0,0 H -303.16 V -24.215"
         style="fill:none;stroke:#141113;stroke-width:6;stroke-linecap:round;stroke-linejoin:round;stroke-miterlimit:10;stroke-dasharray:none;stroke-opacity:1"
         id="path396" /></g><g
       id="g398"
       transform="translate(788.1113,16.9199)"><path
         d="M 0,0 H -303.61 V 49.785"
         style="fill:none;stroke:#141113;stroke-width:6;stroke-linecap:round;stroke-linejoin:round;stroke-miterlimit:10;stroke-dasharray:none;stroke-opacity:1"
         id="path400" /></g><g
       id="g402"
       transform="translate(788.1113,717.2251)"><path
         d="M 0,0 H -32.111 V -14.49"
         style="fill:none;stroke:#141113;stroke-width:6;stroke-linecap:round;stroke-linejoin:round;stroke-miterlimit:10;stroke-dasharray:none;stroke-opacity:1"
         id="path404" /></g><g
       id="g406"
       transform="translate(788.1113,688.2642)"><path
         d="M 0,0 H -32.111 V 14.471"
         style="fill:none;stroke:#141113;stroke-width:6;stroke-linecap:round;stroke-linejoin:round;stroke-miterlimit:10;stroke-dasharray:none;stroke-opacity:1"
         id="path408" /></g><g
       id="g410"
       transform="translate(788.1113,667.2251)"><path
         d="M 0,0 H -32.111 V -14.49"
         style="fill:none;stroke:#141113;stroke-width:6;stroke-linecap:round;stroke-linejoin:round;stroke-miterlimit:10;stroke-dasharray:none;stroke-opacity:1"
         id="path412" /></g><g
       id="g414"
       transform="translate(788.1113,638.2642)"><path
         d="M 0,0 H -32.111 V 14.471"
         style="fill:none;stroke:#141113;stroke-width:6;stroke-linecap:round;stroke-linejoin:round;stroke-miterlimit:10;stroke-dasharray:none;stroke-opacity:1"
         id="path416" /></g><g
       id="g418"
       transform="translate(788.1113,604.4902)"><path
         d="M 0,0 H -32.111 V -14.49"
         style="fill:none;stroke:#141113;stroke-width:6;stroke-linecap:round;stroke-linejoin:round;stroke-miterlimit:10;stroke-dasharray:none;stroke-opacity:1"
         id="path420" /></g><g
       id="g422"
       transform="translate(788.1113,575.5293)"><path
         d="M 0,0 H -32.111 V 14.471"
         style="fill:none;stroke:#141113;stroke-width:6;stroke-linecap:round;stroke-linejoin:round;stroke-miterlimit:10;stroke-dasharray:none;stroke-opacity:1"
         id="path424" /></g><text
       transform="matrix(1,0,0,-1,1282.9629,596.0186)"
       style="font-variant:normal;font-weight:normal;font-stretch:normal;font-size:24px;font-family:Arial;-inkscape-font-specification:ArialMT;writing-mode:lr-tb;fill:#231a1d;fill-opacity:1;fill-rule:nonzero;stroke:none"
       id="text502"><tspan
         x="0 16.007999 33.335999 40.007999 57.335999 62.664001 69.335999 81.335999 94.68 118.68 125.352 145.34399 158.688 166.67999 172.008 185.35201 198.696 205.368 221.37601 229.368 242.71201 249.384 262.728 269.39999 282.74399 296.08801 309.43201"
         y="0"
         id="tspan426">BD Difco™ Marine Broth 2216</tspan><tspan
         x="0 16.007999 33.335999 40.007999 57.335999 62.664001 69.335999 81.335999 94.68 118.68 125.352 145.34399 158.688 166.67999 172.008 185.35201 198.696 205.368 221.37601 229.368 242.71201 249.384 262.728 269.39999 282.74399 296.08801 309.43201"
         y="-85.991997"
         id="tspan428">BD Difco™ Marine Broth 2216</tspan><tspan
         x="0 16.007999 33.335999 40.007999 57.335999 62.664001 69.335999 81.335999 94.68 118.68 125.352 145.34399 158.688 166.67999 172.008 185.35201 198.696 205.368 221.37601 229.368 242.71201 249.384 262.728 269.39999 282.74399 296.08801 309.43201"
         y="127.968"
         id="tspan430">BD Difco™ Marine Broth 2216</tspan><tspan
         x="0 16.007999 33.335999 40.007999 57.335999 62.664001 69.335999 81.335999 94.68 118.68 125.352 145.34399 158.688 166.67999 172.008 185.35201 198.696 205.368 221.37601 229.368 242.71201 249.384 262.728 269.39999 282.74399 296.08801 309.43201"
         y="98.472"
         id="tspan432">BD Difco™ Marine Broth 2216</tspan><tspan
         x="0 16.007999 33.335999 40.007999 57.335999 62.664001 69.335999 81.335999 94.68 118.68 125.352 145.34399 158.688 166.67999 172.008 185.35201 198.696 205.368 221.37601 229.368 242.71201 249.384 262.728 269.39999 282.74399 296.08801 309.43201"
         y="-113.976"
         id="tspan434">BD Difco™ Marine Broth 2216</tspan><tspan
         x="0 16.007999 33.335999 40.007999 57.335999 62.664001 69.335999 81.335999 94.68 118.68 125.352 145.34399 158.688 166.67999 172.008 185.35201 198.696 205.368 221.37601 229.368 242.71201 249.384 262.728 269.39999 282.74399 296.08801 309.43201"
         y="28.968"
         id="tspan436">BD Difco™ Marine Broth 2216</tspan><tspan
         x="0 16.007999 29.351999 42.695999 49.368 72.024002 85.367996 92.040001 105.384 113.376 120.048 137.37601 142.70399 154.70399 168.048 174.72 194.71201 208.056 221.39999 226.728 240.07201"
         y="-231.936"
         id="tspan438">Sea Water Rice medium</tspan><tspan
         x="0.048 16.056 30.719999 48.048 65.375999 72.047997 92.040001 105.384 118.728 124.056 137.39999 157.392 164.064 177.408 190.752 204.09599"
         y="-295.96799"
         id="tspan440">ATCC medium 1525</tspan><tspan
         x="0 16.007999 29.351999 42.695999 49.368 72.024002 85.367996 92.040001 105.384 113.376 120.048 137.37601 142.70399 154.70399 168.048 174.72 194.71201 208.056 221.39999 226.728 240.07201"
         y="-264.45599"
         id="tspan442">Sea Water Rice medium</tspan><tspan
         x="0.048 16.056 30.719999 48.048 65.375999 72.047997 92.040001 105.384 118.728 124.056 137.39999 157.392 164.064 177.408 190.752 204.09599 217.44 224.112 232.104 252.09599 265.44 278.784 284.112 290.784 296.112 309.45599 322.79999 329.47198 345.48001 361.48801 378.81601 393.48001 410.80801 417.48001 437.47198 450.81601 464.16 469.48801 482.832 502.82401"
         y="-187.464"
         id="tspan444">ATCC medium 1034 (Modified PYNFH medium)</tspan><tspan
         x="0.048 16.056 30.719999 48.048 65.375999 72.047997 92.040001 105.384 118.728 124.056 137.39999 157.392 164.064 177.408 190.752 204.09599"
         y="-157.464"
         id="tspan446">ATCC medium 1525</tspan><tspan
         x="0 16.007999 33.335999 40.007999 57.335999 62.664001 69.335999 81.335999 94.68 118.68 125.352 141.36 149.35201 162.696 168.024 181.368 188.03999 205.368 218.71201 232.056 240.048 246.72 253.392 260.064 273.40799 280.07999 293.42401 305.42401 310.75201 324.09601 337.44 344.112 357.45599 370.79999 384.14401 397.48801 410.832 424.17599 437.51999 450.86401 456.19199 461.51999 474.86401 481.53601 494.88 508.224 514.896 528.23999 534.91199 548.25598"
         y="-34.007999"
         id="tspan448">BD Difco™ Brain Heart Infusion 237400 diluted 1/10</tspan><tspan
         x="0.048 16.056 30.719999 48.048 65.375999 72.047997 92.040001 105.384 118.728 124.056 137.39999 157.392 164.064 177.408 190.752 204.09599 210.76801 218.75999 236.088 249.43201 257.42401 270.76801 284.112 289.44 296.112 314.784 322.776 336.12 348.12 360.12 366.79199 386.784 400.12799 413.47198 418.79999 432.14401 452.13599"
         y="184.032"
         id="tspan450">ATCC medium 802 (Cereal Grass Medium)</tspan><tspan
         x="0 14.664 19.992001 33.335999 46.68 54.672001 61.344002 66.671997 80.015999 86.688004 106.68 112.008 125.352 138.696 146.688 160.032 165.36 172.032 189.36 202.70399 209.37601 222.72"
         y="244.032"
         id="tspan452">Flour in mineral water</tspan><tspan
         x="0 14.664 19.992001 33.335999 46.68 54.672001 61.344002 66.671997 80.015999 86.688004 106.68 112.008 125.352 138.696 146.688 160.032 165.36 172.032 189.36 202.70399 209.37601 222.72"
         y="211.536"
         id="tspan454">Flour in mineral water</tspan><tspan
         x="0 16.007999 29.351999 42.695999 54.695999 61.368 68.040001 84.047997 90.720001 104.064 117.408 130.752 144.09599 152.088 165.43201 172.104 192.09599 205.44 218.784 224.112 237.45599"
         y="316.03201"
         id="tspan456">Yeast Standard medium</tspan><tspan
         x="0.048 16.056 30.719999 48.048 65.375999 72.047997 92.040001 105.384 118.728 124.056 137.39999 157.392 164.064 170.73599 184.08 197.424 210.76801 224.112 230.784 250.776 264.12 277.46399 282.79199 289.46399 294.79199 308.13599 321.48001 328.15201 344.16 360.168 377.496 392.16 409.48801 416.16 436.15201 449.496 462.84 468.168 481.51199"
         y="559.17603"
         id="tspan458">ATCC medium: 1034 Modified PYNFH medium</tspan><tspan
         x="0 14.664 30.672001 46.68 53.352001 73.344002 86.688004 100.032 105.36 118.704"
         y="530.47198"
         id="tspan460">TAP medium</tspan><tspan
         x="0.048 16.056 30.719999 48.048 65.375999 72.047997 92.040001 105.384 118.728 124.056 137.39999 157.392 164.064 170.73599 184.08 197.424 210.76801 217.44 233.448 249.45599 268.12799 274.79999 292.12799 298.79999 314.80801 328.15201 341.496 346.82401 353.496 358.82401 370.82401 384.168"
         y="483.84"
         id="tspan462">ATCC medium: 712 PYG w/Additives</tspan><tspan
         x="0 17.327999 30.672001 44.015999 52.007999"
         y="450.336"
         id="tspan464">HL5-C</tspan><tspan
         x="570.04797 586.05603 598.05603 611.40002 624.74402 630.07202"
         y="-187.48801"
         id="tspan466">Axenic</tspan><tspan
         x="570 592.65601 597.98401 604.65601 618 624.672 638.01599 651.35999 663.35999 668.68799 676.67999 690.02399 703.36798 723.35999 736.70398 750.04797 756.71997 770.06403 775.39203 782.06403 795.40802 808.75201 820.75201 827.42401 840.76801 848.76001 854.08801 901.03198 915.69598 923.68799 937.03198 950.37598 962.37598 969.04797 982.39203 994.39203 1001.064 1014.408 1027.752 1033.08"
         y="-295.992"
         id="tspan468">With environmental bacteriaTransfectable</tspan><tspan
         x="570 592.65601 597.98401 604.65601 618 624.672 638.01599 651.35999 663.35999 668.68799 676.67999 690.02399 703.36798 723.35999 736.70398 750.04797 756.71997 770.06403 775.39203 782.06403 795.40802 808.75201 820.75201 827.42401 840.76801 848.76001 854.08801"
         y="-231.96001"
         id="tspan470">With environmental bacteria</tspan><tspan
         x="570 592.65601 597.98401 604.65601 618 624.672 638.01599 651.35999 663.35999 668.68799 676.67999 690.02399 703.36798 723.35999 736.70398 750.04797 756.71997 770.06403 775.39203 782.06403 795.40802 808.75201 820.75201 827.42401 840.76801 848.76001 854.08801"
         y="244.008"
         id="tspan472">With environmental bacteria</tspan><tspan
         x="570 592.65601 597.98401 604.65601 618 624.672 638.01599 651.35999 663.35999 668.68799 676.67999 690.02399 703.36798 723.35999 736.70398 750.04797 756.71997 770.06403 775.39203 782.06403 795.40802 808.75201 820.75201 827.42401 840.76801 848.76001 854.08801"
         y="211.51199"
         id="tspan474">With environmental bacteria</tspan><tspan
         x="570 592.65601 597.98401 604.65601 618 624.672 638.01599 651.35999 663.35999 668.68799 676.67999 690.02399 703.36798 723.35999 736.70398 750.04797 756.71997 770.06403 775.39203 782.06403 795.40802 808.75201 820.75201 827.42401 840.76801 848.76001 854.08801"
         y="184.032"
         id="tspan476">With environmental bacteria</tspan><tspan
         x="570 592.65601 597.98401 604.65601 618 624.672 638.01599 651.35999 663.35999 668.68799 676.67999 690.02399 703.36798 723.35999 736.70398 750.04797 756.71997 770.06403 775.39203 782.06403 795.40802 808.75201 820.75201 827.42401 840.76801 848.76001 854.08801"
         y="-264.45599"
         id="tspan478">With environmental bacteria</tspan><tspan
         x="570.04797 586.05603 598.05603 611.40002 624.74402 630.07202"
         y="-113.952"
         id="tspan480">Axenic</tspan><tspan
         x="570.04797 586.05603 598.05603 611.40002 624.74402 630.07202"
         y="28.992001"
         id="tspan482">Axenic</tspan><tspan
         x="570.04797 586.05603 598.05603 611.40002 624.74402 630.07202"
         y="127.992"
         id="tspan484">Axenic</tspan><tspan
         x="570.04797 586.05603 598.05603 611.40002 624.74402 630.07202"
         y="559.17603"
         id="tspan486">Axenic</tspan><tspan
         x="570.04797 586.05603 598.05603 611.40002 624.74402 630.07202"
         y="530.47198"
         id="tspan488">Axenic</tspan><tspan
         x="570.04797 586.05603 598.05603 611.40002 624.74402 630.07202"
         y="483.84"
         id="tspan490">Axenic</tspan><tspan
         x="570.04797 586.05603 598.05603 611.40002 624.74402 630.07202"
         y="450.336"
         id="tspan492">Axenic</tspan><tspan
         x="570.04797 586.05603 598.05603 611.40002 624.74402 630.07202"
         y="98.472"
         id="tspan494">Axenic</tspan><tspan
         x="570.04797 586.05603 598.05603 611.40002 624.74402 630.07202"
         y="-2.5579538e-13"
         id="tspan496">Axenic</tspan><tspan
         x="570.04797 586.05603 598.05603 611.40002 624.74402 630.07202"
         y="-85.991997"
         id="tspan498">Axenic</tspan><tspan
         x="570.04797 586.05603 598.05603 611.40002 624.74402 630.07202"
         y="-34.032001"
         id="tspan500">Axenic</tspan></text><text
       transform="matrix(1,0,0,-1,799.5069,656.0426)"
       style="font-style:italic;font-variant:normal;font-weight:normal;font-stretch:normal;font-size:24px;font-family:Arial;-inkscape-font-specification:Arial-ItalicMT;writing-mode:lr-tb;fill:#231f20;fill-opacity:1;fill-rule:nonzero;stroke:none"
       id="text506"><tspan
         x="0 17.327999 30.672001 38.664001 52.007999 72 85.344002 97.344002 110.688 124.032 137.37601 150.72 158.71201 172.056 178.728 192.07201 205.416 213.408 225.408 230.73599 244.08 256.07999 261.40799"
         y="0"
         id="tspan504">Chromosphaera perkinsii</tspan></text><text
       transform="matrix(1,0,0,-1,1282.9629,656.0426)"
       style="font-variant:normal;font-weight:normal;font-stretch:normal;font-size:24px;font-family:Arial;-inkscape-font-specification:ArialMT;writing-mode:lr-tb;fill:#231a1d;fill-opacity:1;fill-rule:nonzero;stroke:none"
       id="text542"><tspan
         x="0 17.327999 30.672001 38.664001 52.007999 72 85.344002 97.344002 110.688 124.032 137.37601 150.72 158.71201 172.056 178.728 198.72 212.064 225.408 230.73599 244.08 570.04797 586.05603 598.05603 611.40002 624.74402 630.07202"
         y="0"
         id="tspan508">Chromosphaera mediumAxenic</tspan><tspan
         x="570 592.65601 597.98401 604.65601 618 624.672 638.01599 651.35999 663.35999 668.68799 676.67999 690.02399 703.36798 723.35999 736.70398 750.04797 756.71997 770.06403 775.39203 782.06403 795.40802 808.75201 820.75201 827.42401 840.76801 848.76001 854.08801"
         y="-97.463997"
         id="tspan510">With environmental bacteria</tspan><tspan
         x="570.04797 586.05603 598.05603 611.40002 624.74402 630.07202"
         y="376.03201"
         id="tspan512">Axenic</tspan><tspan
         x="-1051.92 -1034.592 -1021.248 -1007.904 -994.56 -981.216 -967.87201 -961.20001 -955.87201 -942.52802 -929.18402 -915.84003 -910.51202 -905.18402 -891.84003 -885.16803 -871.82397"
         y="-204.45599"
         id="tspan514">Choanoflagellatea</tspan><tspan
         x="-1051.92 -1037.256 -1031.928 -1026.6 -1013.256 -1001.256 -994.58398 -981.23999 -973.24799 -959.90399"
         y="-121.464"
         id="tspan516">Filasterea</tspan><tspan
         x="-1051.92 -1045.248 -1033.248 -1019.904 -1013.232 -999.888 -987.888 -974.54401 -962.54401 -949.20001 -935.85602 -927.86401"
         y="15"
         id="tspan518">Ichthyospore</tspan><tspan
         x="-1051.92 -1034.592 -1021.248 -1009.248 -1003.92 -990.57599 -977.23199 -969.23999 -963.91199 -958.58398 -945.23999"
         y="271.53601"
         id="tspan520">Nucleariida</tspan><tspan
         x="-1051.92 -1034.592 -1021.248 -1013.256 -999.91199 -994.58398 -989.25598 -975.91199 -963.91199 -950.56799 -938.56799 -931.896 -923.90399 -910.56"
         y="168.504"
         id="tspan522">Corallochytrea</tspan><tspan
         x="-1051.92 -1037.256 -1023.912 -1010.568 -997.224"
         y="376.056"
         id="tspan524">Fungi</tspan><tspan
         x="-1051.8719 -1035.864 -1015.872 -1002.528 -989.18402 -975.84003 -962.49597 -950.49597 -937.15198"
         y="515.37598"
         id="tspan526">Amoebozoa</tspan><tspan
         x="-1051.8719 -1035.864 -1027.8719 -1015.872 -1002.528 -989.18402 -975.84003 -962.49597 -957.16803 -943.82397 -931.82397 -925.15198 -919.82397 -906.47998"
         y="583.36798"
         id="tspan528">Archaeplastida</tspan><tspan
         x="-1051.8719 -1034.5439 -1029.2159 -1017.216 -1005.216 -991.87201 -978.52802"
         y="620.37598"
         id="tspan530">Discoba</tspan><tspan
         x="901.05603 915.71997 923.71198 937.05603 950.40002 962.40002 969.07202 982.41602 994.41602 1001.088 1014.432 1027.776 1033.104"
         y="-127.44"
         id="tspan532">Transfectable</tspan><tspan
         x="901.05603 915.71997 923.71198 937.05603 950.40002 962.40002 969.07202 982.41602 994.41602 1001.088 1014.432 1027.776 1033.104"
         y="188.01601"
         id="tspan534">Transfectable</tspan><tspan
         x="901.05603 915.71997 923.71198 937.05603 950.40002 962.40002 969.07202 982.41602 994.41602 1001.088 1014.432 1027.776 1033.104"
         y="-25.944"
         id="tspan536">Transfectable</tspan><tspan
         x="901.05603 915.71997 923.71198 937.05603 950.40002 962.40002 969.07202 982.41602 994.41602 1001.088 1014.432 1027.776 1033.104"
         y="510.384"
         id="tspan538">Transfectable</tspan><tspan
         x="901.05603 915.71997 923.71198 937.05603 950.40002 962.40002 969.07202 982.41602 994.41602 1001.088 1014.432 1027.776 1033.104"
         y="543.888"
         id="tspan540">Transfectable</tspan></text><text
       transform="matrix(0,1,1,0,156.5025,682.0902)"
       style="font-variant:normal;font-weight:normal;font-stretch:normal;font-size:28px;font-family:Arial;-inkscape-font-specification:ArialMT;writing-mode:lr-tb;fill:#231f20;fill-opacity:1;fill-rule:nonzero;stroke:none"
       id="text548"><tspan
         x="0 20.216 35.784 42 57.568001 71.568001 87.136002"
         y="0"
         id="tspan544">Holozoa</tspan><tspan
         x="-407.34399 -387.12799 -371.56 -365.34399 -349.776 -326.452 -312.452 -298.452 -282.884 -275.10001"
         y="2.3239999"
         id="tspan546">Holomycota</tspan></text><text
       transform="matrix(0,1,1,0,93.1861,483.4066)"
       style="font-variant:normal;font-weight:normal;font-stretch:normal;font-size:32px;font-family:Arial;-inkscape-font-specification:ArialMT;writing-mode:lr-tb;fill:#231f20;fill-opacity:1;fill-rule:nonzero;stroke:none"
       id="text554"><tspan
         x="0 24.896 42.688 49.792 65.792 74.688004 92.480003 110.272 126.272 144.064 161.856 170.752"
         y="0"
         id="tspan550">Opisthokonta</tspan><tspan
         x="-100 -78.655998 -52 -34.208 -23.552 -5.7600002 12.032 29.823999"
         y="-60"
         id="tspan552">Amorphea</tspan></text><g
       id="g556"
       transform="translate(172,974)"><path
         d="M 0,0 V -498"
         style="fill:none;stroke:#141113;stroke-width:6;stroke-linecap:butt;stroke-linejoin:miter;stroke-miterlimit:10;stroke-dasharray:none;stroke-opacity:1"
         id="path558" /></g><g
       id="g560"
       transform="translate(113,974)"><path
         d="M 0,0 V -874"
         style="fill:none;stroke:#141113;stroke-width:6;stroke-linecap:butt;stroke-linejoin:miter;stroke-miterlimit:10;stroke-dasharray:none;stroke-opacity:1"
         id="path562" /></g><g
       id="g564"
       transform="translate(51,974)"><path
         d="M 0,0 V -874"
         style="fill:none;stroke:#141113;stroke-width:6;stroke-linecap:butt;stroke-linejoin:miter;stroke-miterlimit:10;stroke-dasharray:none;stroke-opacity:1"
         id="path566" /></g><g
       id="g568"
       transform="translate(172,266)"><path
         d="M 0,0 V 162"
         style="fill:none;stroke:#141113;stroke-width:6;stroke-linecap:butt;stroke-linejoin:miter;stroke-miterlimit:10;stroke-dasharray:none;stroke-opacity:1"
         id="path570" /></g><text
       transform="matrix(1,0,0,-1,2184,497.541)"
       style="font-variant:normal;font-weight:normal;font-stretch:normal;font-size:24px;font-family:Arial;-inkscape-font-specification:ArialMT;writing-mode:lr-tb;fill:#231a1d;fill-opacity:1;fill-rule:nonzero;stroke:none"
       id="text576"><tspan
         x="0 14.664 22.656 36 49.344002 61.344002 68.015999 81.360001 93.360001 100.032 113.376 126.72 132.048"
         y="0"
         id="tspan572">Transfectable</tspan><tspan
         x="0 14.664 22.656 36 49.344002 61.344002 68.015999 81.360001 93.360001 100.032 113.376 126.72 132.048"
         y="-98.472"
         id="tspan574">Transfectable</tspan></text><g
       id="g578"
       transform="translate(753.6313,706.8145)"><path
         d="M 0,0 H -12.315 V -28.392"
         style="fill:none;stroke:#141113;stroke-width:6;stroke-linecap:round;stroke-linejoin:round;stroke-miterlimit:10;stroke-dasharray:none;stroke-opacity:1"
         id="path580" /></g><g
       id="g582"
       transform="translate(753.6313,650)"><path
         d="M 0,0 H -12.315 V 28.422"
         style="fill:none;stroke:#141113;stroke-width:6;stroke-linecap:round;stroke-linejoin:round;stroke-miterlimit:10;stroke-dasharray:none;stroke-opacity:1"
         id="path584" /></g><g
       id="g586"
       transform="translate(1140.5889,385.3428)"><path
         d="M 0,0 -12.467,1.253 -20.566,-8.307 -23.228,3.937 -34.822,8.686 -24,15 l 0.934,12.495 9.349,-8.342 12.172,2.974 -5.044,-11.47 z"
         style="fill:#141113;fill-opacity:1;fill-rule:nonzero;stroke:none"
         id="path588" /></g><g
       id="g590"
       transform="translate(1140.5889,353.3428)"><path
         d="M 0,0 -12.467,1.253 -20.566,-8.307 -23.228,3.937 -34.822,8.686 -24,15 l 0.934,12.495 9.349,-8.342 12.172,2.974 -5.044,-11.47 z"
         style="fill:#141113;fill-opacity:1;fill-rule:nonzero;stroke:none"
         id="path592" /></g><g
       id="g594"
       transform="translate(1050,596)"><path
         d="M 0,0 -12.467,1.253 -20.566,-8.307 -23.228,3.937 -34.822,8.686 -24,15 l 0.934,12.495 9.349,-8.342 12.172,2.974 -5.044,-11.47 z"
         style="fill:#141113;fill-opacity:1;fill-rule:nonzero;stroke:none"
         id="path596" /></g><g
       id="g598"
       transform="translate(1050,564)"><path
         d="M 0,0 -12.467,1.253 -20.566,-8.307 -23.228,3.937 -34.822,8.686 -24,15 l 0.934,12.495 9.349,-8.342 12.172,2.974 -5.044,-11.47 z"
         style="fill:#141113;fill-opacity:1;fill-rule:nonzero;stroke:none"
         id="path600" /></g></g></svg>
